<svg width="13" height="15" fill="none" xmlns="http://www.w3.org/2000/svg"><path d="M1.39 13.315c0 .738.575 1.312 1.313 1.312h7.875c.711 0 1.313-.574 1.313-1.312V4.127H1.39v9.188Zm7.438-7a.45.45 0 0 1 .438-.438.47.47 0 0 1 .437.438v6.125a.45.45 0 0 1-.437.437.432.432 0 0 1-.438-.437V6.315Zm-2.625 0a.45.45 0 0 1 .438-.438.47.47 0 0 1 .437.438v6.125a.45.45 0 0 1-.437.437.432.432 0 0 1-.438-.437V6.315Zm-2.625 0a.45.45 0 0 1 .438-.438.47.47 0 0 1 .437.438v6.125a.45.45 0 0 1-.437.437.432.432 0 0 1-.438-.437V6.315Zm8.75-4.813H9.047l-.274-.492C8.664.791 8.445.627 8.2.627H5.055c-.246 0-.465.164-.575.383l-.246.492H.954a.45.45 0 0 0-.438.438v.875c0 .246.191.437.437.437h11.375a.45.45 0 0 0 .438-.437V1.94a.47.47 0 0 0-.438-.438Z" fill="#212529"/></svg>