<svg width="31" height="31" fill="none" xmlns="http://www.w3.org/2000/svg"><path d="M10.447 2.6c-4.3 0-7.8 3.5-7.8 7.8v10.8c0 4.3 3.5 7.8 7.8 7.8h10.8c4.3 0 7.8-3.5 7.8-7.8V10.4c0-4.3-3.5-7.8-7.8-7.8h-10.8Zm0 1.2h10.8c3.652 0 6.6 2.948 6.6 6.6v10.8c0 3.652-2.948 6.6-6.6 6.6h-10.8a6.591 6.591 0 0 1-6.6-6.6V10.4c0-3.652 2.948-6.6 6.6-6.6Zm12.6 3.6a1.2 1.2 0 1 0 0 2.4 1.2 1.2 0 0 0 0-2.4Zm-7.2 1.8a6.61 6.61 0 0 0-6.6 6.6 6.61 6.61 0 0 0 6.6 6.6 6.61 6.61 0 0 0 6.6-6.6 6.61 6.61 0 0 0-6.6-6.6Zm0 1.2c2.99 0 5.4 2.41 5.4 5.4s-2.41 5.4-5.4 5.4a5.39 5.39 0 0 1-5.4-5.4c0-2.99 2.41-5.4 5.4-5.4Z" fill="#fff"/></svg>