<svg width="31" height="31" fill="none" xmlns="http://www.w3.org/2000/svg"><g clip-path="url(#a)"><path d="M21.378 4.081a6.513 6.513 0 0 0-6.506 6.506c0 .216.054.427.075.638-4.437-.424-8.36-2.562-11.025-5.831a.603.603 0 0 0-.518-.228.597.597 0 0 0-.476.303 6.455 6.455 0 0 0-.881 3.262c0 1.442.516 2.761 1.312 3.844-.154-.068-.323-.105-.468-.188a.598.598 0 0 0-.882.525v.075c0 2.21 1.144 4.13 2.832 5.307-.02-.003-.038.005-.057 0a.6.6 0 0 0-.675.768c.67 2.084 2.382 3.675 4.5 4.257a11.21 11.21 0 0 1-5.756 1.594c-.457 0-.895-.024-1.331-.076a.599.599 0 0 0-.645.394.598.598 0 0 0 .251.713 17.304 17.304 0 0 0 9.375 2.756c5.6 0 9.992-2.339 12.938-5.681 2.946-3.342 4.48-7.683 4.48-11.738 0-.17-.013-.337-.018-.506 1.1-.841 2.081-1.828 2.85-2.981a.599.599 0 0 0-.75-.881c-.31.138-.67.152-.994.262.427-.57.793-1.184 1.013-1.875a.601.601 0 0 0-.881-.694A11.244 11.244 0 0 1 25.784 5.9c-1.162-1.087-2.693-1.819-4.406-1.819Zm0 1.2c1.53 0 2.913.654 3.881 1.688.146.15.359.213.563.169a12.349 12.349 0 0 0 2.25-.675 5.342 5.342 0 0 1-1.538 1.406.599.599 0 0 0 .394 1.125c.6-.073 1.134-.317 1.706-.469a11.394 11.394 0 0 1-1.687 1.5.598.598 0 0 0-.244.525c.01.244.019.485.019.731 0 3.75-1.44 7.821-4.181 10.931-2.742 3.11-6.77 5.288-12.038 5.288-2.393 0-4.652-.53-6.694-1.462 2.532-.195 4.866-1.09 6.75-2.57a.599.599 0 0 0-.356-1.068c-1.978-.035-3.635-1.186-4.519-2.813h.094c.593 0 1.18-.075 1.725-.224a.601.601 0 0 0-.037-1.163c-2.135-.431-3.736-2.17-4.107-4.331.605.208 1.224.373 1.894.393a.6.6 0 0 0 .356-1.106 5.313 5.313 0 0 1-2.362-4.425c0-.684.178-1.312.412-1.912 3 3.293 7.2 5.48 11.944 5.718a.6.6 0 0 0 .619-.731 5.356 5.356 0 0 1-.15-1.218 5.295 5.295 0 0 1 5.306-5.307Z" fill="#fff"/></g><defs><clipPath id="a"><path fill="#fff" transform="translate(.847 .8)" d="M0 0h30v30H0z"/></clipPath></defs></svg>