<svg width="35" height="35" fill="none" xmlns="http://www.w3.org/2000/svg"><path d="M17.44 6.92c-4.489 0-8.704.34-10.949.816-1.495.34-2.789 1.36-3.06 2.924-.27 1.631-.544 4.08-.544 7.14 0 3.06.27 5.44.61 7.14.274 1.495 1.565 2.585 3.06 2.925 2.384.475 6.46.815 10.95.815 4.489 0 8.566-.34 10.946-.815 1.498-.34 2.79-1.36 3.06-2.925.274-1.7.614-4.146.68-7.206 0-3.06-.34-5.51-.68-7.21-.27-1.495-1.562-2.584-3.06-2.924-2.38-.34-6.526-.68-11.012-.68Zm0 1.36c4.896 0 8.838.406 10.742.746 1.02.274 1.836.954 1.971 1.839.41 2.175.68 4.489.68 6.869-.066 2.921-.406 5.301-.68 7.001-.202 1.291-1.562 1.7-1.97 1.839-2.45.475-6.53.812-10.61.812-4.08 0-8.226-.27-10.606-.812-1.02-.274-1.836-.954-1.971-1.839-.545-1.904-.75-4.42-.75-6.935 0-3.129.275-5.44.545-6.866.205-1.294 1.631-1.703 1.971-1.838 2.245-.476 6.394-.816 10.678-.816Zm-3.673 4.08v10.88l9.52-5.44-9.52-5.44Zm1.36 2.314 5.44 3.126-5.44 3.127v-6.253Z" fill="#fff"/></svg>